<svg width="41" height="41" viewBox="0 0 41 41" fill="none" xmlns="http://www.w3.org/2000/svg">
<path d="M31.5791 0H9.02092C4.0388 0 0 4.0388 0 9.02092V31.5791C0 36.5612 4.0388 40.6 9.02092 40.6H31.5791C36.5612 40.6 40.6 36.5612 40.6 31.5791V9.02092C40.6 4.0388 36.5612 0 31.5791 0Z" fill="white"/>
<path d="M14.5902 32.381C15.3975 32.7671 16.2107 32.6618 16.8776 32.3986C17.527 32.1353 18.112 31.7024 18.5625 31.2929L17.3281 29.9239C16.9537 30.2633 16.5617 30.5382 16.1932 30.6845C15.8421 30.8249 15.5906 30.8132 15.3917 30.7196L14.5902 32.381ZM13.2856 29.415C13.1218 29.2863 13.0048 29.0815 12.958 28.7305C12.9112 28.3678 12.958 27.929 13.0575 27.461L11.2556 27.0691C11.1328 27.6307 11.045 28.3035 11.1269 28.9645C11.2147 29.6373 11.4896 30.3569 12.1566 30.8717L13.2856 29.415ZM23.3888 9.89306C23.734 9.62396 24.0791 9.41335 24.3951 9.30805C24.6993 9.20275 24.9216 9.2086 25.0971 9.2905L25.8225 7.59396C25.1088 7.28975 24.3951 7.35995 23.7925 7.56471C23.2075 7.76361 22.6751 8.10877 22.2539 8.44223L23.3888 9.89891V9.89306ZM9.24904 16.6324C9.13789 17.001 8.79858 17.2291 8.43587 17.2291V15.3863C8.00881 15.3863 7.61685 15.6613 7.4823 16.0884L9.24319 16.6324H9.24904ZM8.43587 21.7279C8.59382 21.7279 8.84538 21.8391 8.89803 22.1433L7.07864 22.4592C7.20149 23.1787 7.84501 23.5765 8.43587 23.5765V21.7338V21.7279ZM13.1569 12.2331C13.1101 11.338 13.2681 10.8174 13.5723 10.5951L12.4842 9.10329C11.3258 9.94572 11.2615 11.42 11.3141 12.3384L13.1569 12.2331ZM15.8772 9.28465C16.0586 9.2086 16.2809 9.20275 16.5793 9.3022C16.8952 9.4075 17.2345 9.61811 17.5855 9.88721L18.7204 8.43053C18.2992 8.10292 17.7727 7.75776 17.1818 7.55301C16.5851 7.34825 15.8714 7.27805 15.1518 7.58226L15.8772 9.2788V9.28465ZM27.9168 27.4669C28.0163 27.9349 28.0631 28.3737 28.0163 28.7364C27.9695 29.0874 27.8525 29.2921 27.6887 29.4208L28.8178 30.8775C29.4847 30.3627 29.7596 29.6431 29.8474 28.9704C29.9293 28.3093 29.8474 27.6365 29.7187 27.0749L27.9168 27.4669ZM27.402 10.5951C27.7062 10.8174 27.8642 11.338 27.8174 12.2331L29.6602 12.3384C29.7128 11.4258 29.6485 9.94572 28.4902 9.10329L27.402 10.5951ZM32.5384 17.2291C32.1757 17.2291 31.8423 16.9951 31.7253 16.6324L33.4862 16.0884C33.3516 15.6613 32.9597 15.3863 32.5326 15.3863V17.2291H32.5384ZM32.0763 22.1374C32.1289 21.8391 32.3805 21.722 32.5384 21.722V23.5648C33.1293 23.5648 33.767 23.167 33.8957 22.4475L32.0763 22.1316V22.1374ZM25.5826 30.7137C25.3837 30.8073 25.138 30.819 24.7812 30.6786C24.4185 30.5324 24.0206 30.2574 23.6462 29.9181L22.4119 31.287C22.8623 31.6965 23.4473 32.1294 24.0967 32.3927C24.7636 32.656 25.5768 32.7671 26.3841 32.3752L25.5826 30.7137ZM20.4813 28.7013C19.2645 28.7013 18.153 29.1634 17.3164 29.9181L18.5508 31.287C19.0597 30.8249 19.7383 30.5441 20.4813 30.5441V28.7013ZM23.6462 29.9181C22.8097 29.1634 21.6981 28.7013 20.4813 28.7013V30.5441C21.2243 30.5441 21.897 30.8249 22.4119 31.287L23.6462 29.9181ZM27.6828 29.4091C27.0335 29.9122 26.3256 30.351 25.5768 30.7137L26.3783 32.3752C27.2441 31.9598 28.0631 31.4508 28.8119 30.8658L27.6828 29.4091ZM27.8057 26.449C27.8057 26.7941 27.8408 27.1334 27.911 27.4552L29.7128 27.0632C29.6719 26.8643 29.6485 26.6596 29.6485 26.449H27.8057ZM32.5326 21.722C29.9234 21.722 27.8057 23.8398 27.8057 26.449H29.6485C29.6485 24.8577 30.9414 23.5648 32.5326 23.5648V21.722ZM32.2459 20.1074C32.2459 20.7977 32.1874 21.4763 32.0704 22.1374L33.8898 22.4533C34.0244 21.6928 34.0887 20.9089 34.0887 20.1074H32.2459ZM31.7194 16.6266C32.0587 17.7264 32.2459 18.8964 32.2459 20.1074H34.0887C34.0887 18.7092 33.8781 17.352 33.4803 16.0767L31.7194 16.6207V16.6266ZM27.7998 12.4964C27.7998 15.1055 29.9176 17.2233 32.5267 17.2233V15.3805C30.9355 15.3805 29.6426 14.0876 29.6426 12.4964H27.7998ZM27.8057 12.2331C27.8057 12.3209 27.7998 12.4086 27.7998 12.4964H29.6426C29.6426 12.4437 29.6426 12.3852 29.6426 12.3326L27.7998 12.2273L27.8057 12.2331ZM25.0854 9.28465C25.9044 9.63566 26.6825 10.0744 27.3903 10.5951L28.4785 9.10329C27.6536 8.50073 26.7585 7.99177 25.8108 7.58811L25.0854 9.28465ZM20.4755 10.8876C21.5694 10.8876 22.5757 10.519 23.3771 9.89306L22.2422 8.43638C21.7566 8.81664 21.1424 9.03894 20.4755 9.03894V10.8817V10.8876ZM17.5738 9.89306C18.3753 10.5132 19.3815 10.8876 20.4755 10.8876V9.04479C19.8085 9.04479 19.1943 8.81664 18.7087 8.44223L17.5738 9.89891V9.89306ZM13.5547 10.5951C14.2685 10.0744 15.0407 9.63566 15.8597 9.28465L15.1343 7.58811C14.1807 7.99177 13.2915 8.50073 12.4666 9.10329L13.5547 10.5951ZM13.1452 12.5022C13.1452 12.4145 13.1452 12.3267 13.1394 12.239L11.2966 12.3443C11.2966 12.3969 11.2966 12.4554 11.2966 12.5081H13.1394L13.1452 12.5022ZM8.41832 17.2291C11.0275 17.2291 13.1452 15.1114 13.1452 12.5022H11.3024C11.3024 14.0935 10.0096 15.3863 8.41832 15.3863V17.2291ZM8.70498 20.1133C8.70498 18.8964 8.88633 17.7323 9.23149 16.6324L7.4706 16.0884C7.07864 17.3637 6.86218 18.7151 6.86218 20.1191H8.70498V20.1133ZM8.88048 22.1433C8.76348 21.488 8.70498 20.8094 8.70498 20.1133H6.86218C6.86218 20.9089 6.93238 21.6928 7.06109 22.4592L8.88048 22.1433ZM13.1452 26.4607C13.1452 23.8515 11.0275 21.7338 8.41832 21.7338V23.5765C10.0096 23.5765 11.3024 24.8694 11.3024 26.4607H13.1452ZM13.0399 27.4669C13.1101 27.1393 13.1452 26.8058 13.1452 26.4607H11.3024C11.3024 26.6713 11.279 26.8819 11.2381 27.0749L13.0399 27.4669ZM15.3741 30.7196C14.6253 30.3569 13.9175 29.9181 13.2681 29.415L12.139 30.8717C12.8937 31.4567 13.7068 31.9598 14.5727 32.381L15.3741 30.7196Z" fill="black"/>
<path d="M20.4871 16.5972C22.4294 16.5972 24.0031 18.1709 24.0031 20.1131H25.8459C25.8459 17.1529 23.4473 14.7485 20.4813 14.7485V16.5913L20.4871 16.5972ZM16.9712 20.1131C16.9712 18.1709 18.5449 16.5972 20.4871 16.5972V14.7544C17.527 14.7544 15.1226 17.1529 15.1226 20.119H16.9654L16.9712 20.1131ZM20.4871 23.629C18.5449 23.629 16.9712 22.0554 16.9712 20.1131H15.1284C15.1284 23.0733 17.527 25.4777 20.493 25.4777V23.6349L20.4871 23.629ZM24.0031 20.1131C24.0031 22.0554 22.4294 23.629 20.4871 23.629V25.4718C23.4473 25.4718 25.8517 23.0733 25.8517 20.1073H24.0089L24.0031 20.1131Z" fill="black"/>
</svg>
