<svg width="37" height="37" viewBox="0 0 37 37" fill="none" xmlns="http://www.w3.org/2000/svg">
<circle cx="18.5" cy="18.5" r="18.5" fill="white"/>
<mask id="mask0_1_4126" style="mask-type:luminance" maskUnits="userSpaceOnUse" x="1" y="2" width="35" height="34">
<path d="M18.4549 35.7335C27.8155 35.7335 35.4038 28.182 35.4038 18.8667C35.4038 9.5515 27.8155 2 18.4549 2C9.09426 2 1.50598 9.5515 1.50598 18.8667C1.50598 28.182 9.09426 35.7335 18.4549 35.7335Z" fill="white"/>
</mask>
<g mask="url(#mask0_1_4126)">
<path d="M18.4548 36.7405C28.0949 36.7405 35.9097 28.9635 35.9097 19.3702C35.9097 9.77691 28.0949 2 18.4548 2C8.81479 2 1 9.77691 1 19.3702C1 28.9635 8.81479 36.7405 18.4548 36.7405Z" fill="white"/>
<path d="M11.0886 9.38998C8.8721 9.37799 6.65562 9.36601 4.43311 9.36001C4.42709 9.30607 4.42106 9.25212 4.41504 9.19818C4.74028 8.76662 5.04144 8.31708 5.38475 7.9035C5.83648 7.36405 6.32435 7.0224 7.14349 7.0284C14.7566 7.07035 22.3698 7.06436 29.989 7.03439C30.6515 7.03439 31.1394 7.19023 31.5429 7.69971C31.9464 8.21518 32.3861 8.70668 32.8077 9.21017C32.8077 9.25812 32.8198 9.30607 32.8258 9.35402C28.3687 9.36001 23.9117 9.36601 19.4486 9.37799C19.1715 9.37799 18.9306 9.30007 18.7078 9.16821C17.4068 8.41298 15.9853 8.10729 14.5037 8.20919C13.3352 8.2931 12.2149 8.64674 11.2512 9.36001C11.197 9.36601 11.1428 9.372 11.0886 9.38399V9.38998Z" fill="#0000CD"/>
<path d="M32.3922 29.7933C28.7422 29.8053 25.0862 29.8173 21.4363 29.8233C20.3099 29.8233 19.1776 29.8053 18.0513 29.7933C18.0031 29.7094 17.961 29.7094 17.9128 29.7933C17.9308 30.2249 18.3525 30.3568 18.5633 30.6445C18.7138 30.8483 18.9066 31.0281 19.0812 31.2199C18.8584 31.5016 18.5452 31.3877 18.2742 31.3877C14.5519 31.3937 10.8297 31.3877 7.10138 31.3937C6.84239 31.3937 6.57135 31.3218 6.33043 31.4896C6.30634 31.5136 6.30634 31.5376 6.33043 31.5615C5.63778 30.9741 5.0174 30.3268 4.58374 29.5236C8.51078 29.5236 12.4438 29.5236 16.3709 29.5116C16.6479 29.5116 16.9551 29.6255 17.19 29.3678C17.184 29.2539 17.2081 29.116 17.0274 29.1041L17.0454 29.0801C16.9852 29.0381 16.931 28.9902 16.8708 28.9482C16.7323 28.8104 16.5937 28.6725 16.4552 28.5346C16.5516 28.0551 16.937 28.2289 17.2141 28.2289C22.6529 28.217 28.0917 28.217 33.5306 28.217C33.3318 28.7804 32.8981 29.188 32.5669 29.6675C32.5127 29.7094 32.4524 29.7514 32.3982 29.7874L32.3922 29.7933Z" fill="#228B22"/>
<path d="M9.5166 4.46925C11.6729 3.18656 13.9797 2.40137 16.4973 2.11966C20.5448 1.67012 24.2972 2.44333 27.7604 4.58314C27.7062 4.61311 27.652 4.64907 27.5978 4.67904C21.5748 4.67904 15.5517 4.67904 9.52865 4.67904C9.52865 4.60711 9.52262 4.53519 9.5166 4.46326V4.46925Z" fill="#0000CD"/>
<path d="M34.687 25.9155C34.5424 26.2032 34.5605 26.5629 34.2895 26.7906C28.0134 26.7906 21.7374 26.7906 15.4614 26.7906C15.2626 26.7906 15.0157 26.7007 14.8771 26.9525C14.8771 26.9884 14.8771 27.0184 14.8771 27.0544C14.6543 27.3301 14.3411 27.2102 14.07 27.2162C10.7333 27.2222 7.39047 27.2162 4.0537 27.2282C3.79471 27.2282 3.52367 27.1443 3.28877 27.3301C3.2707 27.3541 3.2707 27.372 3.28877 27.396C2.8792 26.9884 2.6443 26.4969 2.53589 25.9335C2.87318 25.9335 3.21047 25.9215 3.54776 25.9215C13.9255 25.9215 24.3092 25.9215 34.687 25.9215V25.9155Z" fill="#228B22"/>
<path d="M21.8097 33.9951C22.3277 34.5226 22.8457 35.056 23.3637 35.5835C23.5805 35.7993 23.6708 35.9191 23.2432 36.027C22.3096 36.2668 21.37 36.4526 20.4184 36.5905C19.5631 36.7163 18.7018 36.7763 17.8526 36.7103C14.9856 36.4946 12.2571 35.8053 9.7937 34.2529C9.84189 34.1689 9.89007 34.085 9.93223 34.0011C13.8954 34.0011 17.8586 34.0011 21.8218 34.0071L21.8097 33.9951Z" fill="#228B22"/>
<path d="M1.39152 19.1602C1.56016 19.1542 1.72881 19.1362 1.89745 19.1362C13.0522 19.1362 24.2069 19.1362 35.3676 19.1362C35.5362 19.1362 35.7049 19.1542 35.8735 19.1602C35.9097 19.2022 35.9518 19.2381 35.988 19.2801C36 19.4719 36.0602 19.6877 35.7591 19.6937C35.5904 19.6937 35.4218 19.6937 35.2532 19.6937C24.1767 19.6937 13.0943 19.6937 2.01791 19.6817C1.74688 19.6817 1.2048 19.9694 1.27708 19.2741C1.31322 19.2321 1.35538 19.1962 1.39152 19.1542V19.1602Z" fill="#7E7E7E"/>
<path d="M20.9062 11.2185C25.2248 11.2185 29.4229 11.2185 33.6149 11.2065C33.9462 11.2065 34.1389 11.3084 34.2594 11.6021C34.434 12.0337 34.6208 12.4653 34.8316 12.9568C32.3501 12.9568 29.9288 12.9508 27.5075 12.9687C27.1943 12.9687 27.0257 12.759 26.8269 12.6271C25.3272 11.6441 23.8033 11.6561 22.3277 12.5731C21.8398 12.8728 21.7435 12.735 21.5808 12.3454C21.4303 11.9798 21.2676 11.6201 20.9062 11.2245V11.2185Z" fill="#0000CD"/>
<path d="M21.7856 33.8512C21.3579 33.5216 20.9845 33.1379 20.6532 32.7184C20.599 32.6644 20.5448 32.6045 20.4906 32.5505C20.4485 32.5086 20.4063 32.4606 20.3641 32.4187C20.3641 32.2209 20.2678 32.119 20.063 32.119L20.069 32.125C20.1533 31.6874 20.5027 31.8253 20.7617 31.8253C23.7371 31.8193 26.7185 31.8193 29.6939 31.8253C29.9227 31.8253 30.1817 31.7414 30.3624 31.9751C29.6457 32.8383 28.7603 33.4856 27.7424 33.9591C27.5858 33.7973 27.387 33.8392 27.2003 33.8392C25.3934 33.8392 23.5865 33.8392 21.7856 33.8452V33.8512Z" fill="#228B22"/>
<path d="M12.9377 24.8906C12.8534 24.8067 12.763 24.7167 12.6787 24.6328C12.7992 24.5729 12.8413 24.477 12.8353 24.3511C16.3468 24.3451 19.8642 24.3271 23.3757 24.3271C27.2967 24.3271 31.2237 24.3451 35.1447 24.3511C35.1809 24.3931 35.223 24.435 35.2592 24.471C35.211 24.6208 35.1628 24.7647 35.1146 24.9145C34.1268 24.9145 33.139 24.9145 32.1513 24.9145C25.7488 24.9086 19.3402 24.9026 12.9377 24.8966V24.8906Z" fill="#228B22"/>
<path d="M11.3716 23.4636C11.474 23.5655 11.5825 23.6734 11.6848 23.7753C11.7391 23.8173 11.7993 23.8532 11.8535 23.8952C11.8957 23.9371 11.9378 23.9791 11.98 24.0211C11.8896 24.5066 11.4981 24.3267 11.2211 24.3267C8.13124 24.3387 5.04744 24.3387 1.95761 24.3387C1.78896 24.069 1.65645 23.7933 1.71668 23.4636C1.75282 23.4217 1.78896 23.3857 1.83112 23.3438C4.96914 23.3438 8.11317 23.3438 11.2512 23.3438C11.2933 23.3857 11.3355 23.4277 11.3716 23.4636Z" fill="#228B22"/>
<path d="M28.2002 14.1313C30.507 14.1313 32.8199 14.1433 35.1267 14.1493C35.1749 14.1853 35.2171 14.2213 35.2652 14.2572C35.3616 14.5869 35.458 14.9225 35.5544 15.2522C35.5062 15.2822 35.464 15.3181 35.4158 15.3481C34.5063 15.3481 33.5969 15.3481 32.6934 15.3481C32.6392 15.3241 32.579 15.3002 32.5248 15.2762C31.4888 14.3531 29.6036 14.2093 28.417 15.1323C28.3387 14.8386 28.2604 14.5569 28.1821 14.2752C28.2002 14.2332 28.2122 14.1913 28.2062 14.1433L28.2002 14.1313Z" fill="#0000CD"/>
<path d="M9.31781 11.2184C9.08291 11.656 8.84199 12.0516 8.66129 12.4712C8.52276 12.7828 8.39026 12.8667 8.08308 12.669C6.42072 11.602 4.71619 11.4642 2.9695 12.4592C2.8912 12.5011 2.78881 12.5011 2.69846 12.5071C2.6563 12.5071 2.61414 12.4652 2.578 12.4472C2.79483 11.4822 3.33691 11.1165 4.38492 11.1885C6.01115 11.2964 7.64942 11.2184 9.31781 11.2184Z" fill="#0000CD"/>
<path d="M34.6869 25.9152C24.3092 25.9152 13.9254 25.9152 3.5477 25.9152C3.21041 25.9152 2.87312 25.9212 2.53582 25.9272C2.49969 25.8792 2.46355 25.8372 2.42139 25.7893C2.56594 25.7713 2.71049 25.7533 2.84902 25.7354C9.00459 25.7354 15.1541 25.7533 21.3097 25.7533C25.6764 25.7533 30.0431 25.7413 34.4099 25.7354C34.5062 25.7473 34.6026 25.7593 34.699 25.7713C34.717 25.8193 34.711 25.8672 34.6869 25.9092V25.9152Z" fill="#008300"/>
<path d="M12.9377 24.8903C19.3403 24.8963 25.7488 24.9023 32.1513 24.9083C33.1391 24.9083 34.1269 24.9083 35.1147 24.9083C34.9641 25.202 34.687 25.0521 34.4822 25.0521C27.5437 25.0641 20.5991 25.0641 13.6605 25.0521C13.4196 25.0521 13.1184 25.19 12.9377 24.8843V24.8903Z" fill="#008300"/>
<path d="M16 27.1774C16.1385 26.9257 16.3795 27.0156 16.5842 27.0156C22.8603 27.0156 29.1363 27.0156 35.4123 27.0156C35.1774 27.2674 34.8702 27.1415 34.5992 27.1415C28.6665 27.1475 22.7278 27.1475 16.795 27.1475C16.53 27.1475 16.265 27.1595 16 27.1715V27.1774Z" fill="#4D974D"/>
<path d="M33.5245 28.2167C28.0857 28.2167 22.6469 28.2167 17.208 28.2287C16.937 28.2287 16.5455 28.0549 16.4491 28.5344C16.3166 28.4145 16.1841 28.2946 15.9492 28.0729H16.8467C22.171 28.0729 27.4894 28.0729 32.8138 28.0849C33.0427 28.0849 33.3378 27.911 33.5185 28.2167H33.5245Z" fill="#008300"/>
<path d="M1.42163 22.4629C1.42163 22.409 1.42163 22.361 1.42163 22.3071C1.68062 22.1333 1.97575 22.1692 2.25884 22.1692C4.87887 22.1692 7.4989 22.1632 10.1189 22.1572C10.1611 22.1992 10.2033 22.2411 10.2394 22.2771C10.0226 22.5648 9.70936 22.4449 9.43832 22.4509C6.76408 22.4629 4.08985 22.4569 1.42163 22.4569V22.4629Z" fill="#228B22"/>
<path d="M19.3582 31.5377C19.4245 31.8134 19.1956 31.6756 19.1233 31.6756C14.9855 31.6815 10.8537 31.6815 6.71584 31.6756C6.57731 31.6756 6.42071 31.7055 6.32434 31.5617C6.30627 31.5377 6.30627 31.5137 6.32434 31.4897C6.58936 31.5077 6.85437 31.5317 7.11336 31.5317C11.191 31.5317 15.2686 31.5317 19.3522 31.5317L19.3582 31.5377Z" fill="#8FB58F"/>
<path d="M19.3583 31.5378C15.2807 31.5378 11.2031 31.5378 7.11946 31.5378C6.85445 31.5378 6.58944 31.5078 6.33044 31.4958C6.57137 31.328 6.8424 31.3999 7.1014 31.3999C10.8236 31.3999 14.5459 31.3999 18.2742 31.3939C18.5452 31.3939 18.8584 31.5078 19.0813 31.2261C19.2077 31.304 19.3282 31.3819 19.3643 31.5378H19.3583Z" fill="#008300"/>
<path d="M32.8379 15.9717C33.7173 15.9717 34.3617 15.9717 35.0122 15.9717C35.4258 15.9717 35.7129 16.2134 35.8735 16.6969C35.0664 16.6969 34.2955 16.6969 33.5245 16.6969C33.0728 16.6969 33.2294 16.2294 32.8379 15.9717Z" fill="#0000CD"/>
<path d="M17.0153 29.1099C17.196 29.1159 17.1719 29.2537 17.1779 29.3736C12.9377 29.3796 8.70349 29.3916 4.46326 29.3976C4.63793 29.0859 4.93908 29.2477 5.16795 29.2477C8.86611 29.2357 12.5703 29.2417 16.2685 29.2297C16.5154 29.2297 16.7985 29.3496 17.0093 29.1099H17.0153Z" fill="#8FB58F"/>
<path d="M4.46924 29.3917C8.70947 29.3857 12.9437 29.3737 17.1839 29.3677C16.949 29.6254 16.6418 29.5115 16.3648 29.5115C12.4377 29.5235 8.50469 29.5175 4.57765 29.5235C4.54151 29.4816 4.50538 29.4396 4.46924 29.3917Z" fill="#008300"/>
<path d="M15.1361 27.2282C15.2325 27.2701 15.3349 27.36 15.2204 27.42C15.0879 27.4919 14.9012 27.4859 14.7386 27.4859C11.1006 27.4859 7.46874 27.4859 3.83082 27.4859C3.6441 27.4859 3.43932 27.5458 3.28272 27.384C3.26465 27.36 3.26465 27.3361 3.28272 27.3181C7.15554 27.3241 11.0284 27.3361 14.8952 27.3361C14.9735 27.3361 15.0518 27.2641 15.1361 27.2222V27.2282Z" fill="#8FB58F"/>
<path d="M15.1361 27.2282C15.0578 27.2641 14.9795 27.342 14.8952 27.342C11.0223 27.342 7.14952 27.3301 3.28271 27.3241C3.51761 27.1382 3.79467 27.2222 4.04764 27.2222C7.38442 27.2222 10.7272 27.2222 14.064 27.2102C14.335 27.2102 14.6482 27.3301 14.8711 27.0483C14.9614 27.1083 15.0458 27.1682 15.1361 27.2282Z" fill="#008300"/>
<path d="M30.3624 31.9749C30.1817 31.7412 29.9227 31.8251 29.6938 31.8251C26.7185 31.8251 23.737 31.8191 20.7617 31.8251C20.5027 31.8251 20.1533 31.6872 20.069 32.1248C19.9365 32.0049 19.81 31.885 19.6052 31.6992H30.7238C30.6877 31.939 30.519 31.945 30.3624 31.9749Z" fill="#008300"/>
<path d="M1.95764 24.3392C5.04747 24.3392 8.13128 24.3392 11.2211 24.3272C11.4921 24.3272 11.8897 24.507 11.98 24.0215C12.2089 24.2792 12.498 24.3871 12.8353 24.3511C12.8353 24.477 12.7931 24.5729 12.6787 24.6329C12.6425 24.6329 12.6064 24.6209 12.5703 24.6149C12.5402 24.537 12.504 24.477 12.4016 24.519C12.3113 24.519 12.2149 24.519 12.1246 24.519C8.78779 24.453 5.45704 24.459 2.12026 24.519C2.06606 24.459 2.01185 24.3991 1.96366 24.3392H1.95764Z" fill="#008300"/>
<path d="M2.11426 24.5189C5.45103 24.459 8.78178 24.453 12.1186 24.5189C11.9559 24.6688 11.7572 24.6208 11.5644 24.6208C8.59507 24.6208 5.63172 24.6208 2.66236 24.6208C2.47564 24.6208 2.27086 24.6628 2.11426 24.5129V24.5189Z" fill="#CBD9CB"/>
<path d="M1.42165 22.463C4.09589 22.463 6.77013 22.463 9.43835 22.457C9.70938 22.457 10.0226 22.5769 10.2394 22.2832C10.3719 22.3611 10.4924 22.445 10.5345 22.6009C7.4929 22.6009 4.45125 22.5889 1.40961 22.5889C1.39154 22.5469 1.39154 22.505 1.41563 22.463H1.42165Z" fill="#008300"/>
<path d="M1.41557 22.5885C4.45721 22.5885 7.49886 22.6005 10.5405 22.6005C10.667 22.8403 10.4381 22.7384 10.3779 22.7384C7.50488 22.7444 4.63791 22.7384 1.76491 22.7384C1.62638 22.7384 1.46375 22.7683 1.40955 22.5825L1.41557 22.5885Z" fill="#8FB58F"/>
<path d="M10.1189 22.1571C7.49886 22.1571 4.87883 22.1631 2.2588 22.1691C1.96969 22.1691 1.68058 22.1331 1.42159 22.3069C1.42159 22.217 1.40955 22.1331 1.40955 22.0432C1.69865 22.0372 1.98776 22.0192 2.27687 22.0192C4.83667 22.0072 7.39044 21.9953 9.95024 21.9893C10.0105 22.0432 10.0647 22.1031 10.1249 22.1571H10.1189Z" fill="#008300"/>
<path d="M9.94426 21.9895C7.38446 22.0015 4.83069 22.0075 2.27088 22.0195C1.98178 22.0195 1.69267 22.0315 1.40356 22.0435C1.49391 21.8457 1.6746 21.8756 1.83722 21.8756C4.42714 21.8756 7.02308 21.8756 9.613 21.8756C9.72141 21.8756 9.82983 21.9476 9.94426 21.9835V21.9895Z" fill="#CBD9CB"/>
<path d="M21.7855 33.8512C23.5924 33.8512 25.3994 33.8452 27.2003 33.8452C27.387 33.8452 27.5918 33.7973 27.7423 33.9651C25.7668 33.9771 23.7852 33.9891 21.8096 34.001C21.8096 34.001 21.8217 34.013 21.8277 34.019C21.8156 33.9651 21.7976 33.9111 21.7855 33.8632V33.8512Z" fill="#008300"/>
<path d="M9.93822 34.0068C9.89003 34.0908 9.84185 34.1747 9.79969 34.2586C9.66718 34.1986 9.53467 34.1387 9.25159 34.0068H9.93822Z" fill="#008300"/>
<path d="M34.699 25.7774C34.6026 25.7654 34.5063 25.7534 34.4099 25.7415C34.5063 25.6336 34.6207 25.6036 34.7472 25.6875C34.7472 25.6875 34.7111 25.7474 34.693 25.7834L34.699 25.7774Z" fill="#CBD9CB"/>
<path d="M9.5166 4.46903C9.5166 4.54096 9.52262 4.61289 9.52865 4.68481C9.44432 4.68481 9.35398 4.67882 9.26965 4.67282C9.31181 4.55295 9.37205 4.46304 9.5166 4.46903Z" fill="#5353D2"/>
<path d="M2.84902 25.7357C2.70447 25.7537 2.55992 25.7717 2.42139 25.7897C2.53582 25.5619 2.6864 25.5978 2.84902 25.7357Z" fill="#CBD9CB"/>
<path d="M20.063 32.1191C20.2678 32.1191 20.3641 32.215 20.3641 32.4188C20.2618 32.3169 20.1654 32.221 20.063 32.1191Z" fill="#008300"/>
<path d="M32.8258 9.3543C32.8198 9.30635 32.8138 9.2584 32.8077 9.21045C32.9282 9.22244 32.9643 9.28837 32.9282 9.40225C32.8921 9.38427 32.8619 9.37228 32.8258 9.3543Z" fill="#B4B4E6"/>
<path d="M4.41511 9.19238C4.42113 9.24633 4.42715 9.30027 4.43318 9.35422C4.40306 9.3722 4.37294 9.39617 4.34283 9.41416C4.2826 9.31226 4.33078 9.24633 4.41511 9.19838V9.19238Z" fill="#B4B4E6"/>
<path d="M27.5978 4.68526L27.7604 4.58936C27.7604 4.58936 27.8387 4.66728 27.8327 4.67327C27.7604 4.76318 27.6761 4.72721 27.5978 4.68526Z" fill="#5353D2"/>
<path d="M11.8536 23.8895C11.7994 23.8476 11.7391 23.8116 11.6849 23.7696C11.7873 23.7457 11.8235 23.8116 11.8536 23.8895Z" fill="#008300"/>
<path d="M11.0886 9.39019C11.1428 9.38419 11.197 9.3782 11.2512 9.36621C11.2091 9.44413 11.1609 9.49808 11.0886 9.39019Z" fill="#B4B4E6"/>
<path d="M28.2001 14.1313C28.2001 14.1793 28.2001 14.2213 28.176 14.2632C28.1459 14.2213 28.1158 14.1793 28.0857 14.1433C28.1218 14.1433 28.164 14.1373 28.2001 14.1313Z" fill="#5353D2"/>
<path d="M35.2652 14.2514C35.2171 14.2154 35.1749 14.1794 35.1267 14.1435C35.2351 14.1015 35.2713 14.1435 35.2652 14.2514Z" fill="#5353D2"/>
<path d="M32.5187 15.2642C32.5729 15.2881 32.6331 15.3121 32.6873 15.3361C32.597 15.39 32.5548 15.3361 32.5187 15.2642Z" fill="#5353D2"/>
<path d="M1.82513 23.3379C1.789 23.3799 1.75286 23.4159 1.7107 23.4578C1.68058 23.3559 1.72877 23.3259 1.82513 23.3379Z" fill="#008300"/>
<path d="M11.3717 23.4639C11.3295 23.4219 11.2874 23.38 11.2512 23.344C11.3476 23.332 11.3898 23.368 11.3717 23.4639Z" fill="#008300"/>
<path d="M17.9127 29.7934C17.9609 29.7095 18.0031 29.7095 18.0512 29.7934L17.985 29.8054L17.9187 29.7874L17.9127 29.7934Z" fill="#008300"/>
<path d="M32.3922 29.7932C32.4464 29.7513 32.5067 29.7093 32.5609 29.6733C32.5368 29.7573 32.4886 29.8112 32.3922 29.7932Z" fill="#008300"/>
<path d="M35.2592 24.4708C35.2231 24.4289 35.1809 24.3869 35.1448 24.3509C35.2351 24.339 35.2954 24.3629 35.2592 24.4708Z" fill="#008300"/>
<path d="M12.3956 24.5187C12.498 24.4708 12.5342 24.5367 12.5643 24.6146C12.5101 24.5846 12.4498 24.5547 12.3956 24.5187Z" fill="#CBD9CB"/>
</g>
</svg>
